<svg width="22" height="22" viewBox="0 0 22 22" fill="none" xmlns="http://www.w3.org/2000/svg">
<path d="M17.2219 3.22182L3.22118 17.2225C2.79162 17.6521 2.79165 18.3486 3.22118 18.7782C3.65074 19.2077 4.34725 19.2077 4.77681 18.7782L18.7775 4.77746C19.2071 4.34789 19.2071 3.65138 18.7775 3.22182C18.348 2.79229 17.6515 2.79226 17.2219 3.22182Z" fill="white"/>
<path d="M3.22147 4.77718L17.2222 18.7779C17.6517 19.2075 18.3483 19.2074 18.7778 18.7779C19.2074 18.3483 19.2074 17.6518 18.7778 17.2223L4.7771 3.22154C4.34754 2.79198 3.65103 2.79198 3.22147 3.22154C2.79194 3.65108 2.79191 4.34762 3.22147 4.77718Z" fill="white"/>
</svg>
