<svg width="89" height="40" viewBox="0 0 89 40" fill="none" xmlns="http://www.w3.org/2000/svg">
<path d="M1.3125 0.89375L6.225 0.875C7.10625 0.875 7.8375 1.1375 8.38125 1.68125C8.98125 2.20625 9.3 2.91875 9.3 3.725C9.3 4.325 9.1125 4.90625 8.75625 5.35625C8.64375 5.50625 8.53125 5.6375 8.4 5.73125C8.68125 5.91875 8.9625 6.14375 9.15 6.425C9.5625 6.875 9.80625 7.5125 9.80625 8.15C9.80625 8.975 9.43125 9.78125 8.8125 10.3062C8.25 10.7937 7.51875 11 6.84375 11H1.3125V0.89375ZM2.85 2.16875V5.3H6.225C6.73125 5.3 7.10625 5.1125 7.3875 4.75625C7.63125 4.45625 7.74375 4.08125 7.74375 3.725C7.725 3.36875 7.6125 3.0125 7.3875 2.7125C7.0875 2.3375 6.75 2.16875 6.225 2.16875H2.85ZM2.85 6.575V9.725H6.6375C7.125 9.725 7.5 9.59375 7.8375 9.25625C8.11875 8.95625 8.23125 8.54375 8.25 8.15C8.26875 7.75625 8.11875 7.3625 7.8375 7.0625C7.425 6.63125 7.03125 6.575 6.45 6.575H2.85ZM16.152 11.2812C14.6895 11.2812 13.3395 10.7375 12.4582 9.63125C11.6145 8.5625 11.3145 7.25 11.3145 5.91875C11.3145 4.60625 11.6332 3.275 12.4582 2.24375C13.3207 1.175 14.6895 0.593749 16.152 0.593749C17.5957 0.593749 18.9645 1.1375 19.827 2.24375C20.7082 3.3125 20.9895 4.625 20.9895 5.91875C20.9895 7.2875 20.6895 8.54375 19.827 9.63125C18.9457 10.7562 17.6332 11.2812 16.152 11.2812ZM18.627 8.69375C19.1895 7.94375 19.377 6.93125 19.377 5.91875C19.377 4.94375 19.1895 3.9125 18.627 3.1625C18.0645 2.4125 17.127 2.0375 16.152 2.0375C15.177 2.0375 14.2395 2.4125 13.6957 3.1625C13.1145 3.9125 12.927 4.94375 12.927 5.91875C12.927 6.93125 13.1145 7.94375 13.6957 8.69375C14.2395 9.44375 15.177 9.8375 16.152 9.8375C17.127 9.8375 18.0645 9.44375 18.627 8.69375ZM31.3629 2.225C32.1691 3.25625 32.4691 4.60625 32.4691 5.91875C32.4691 7.25 32.2066 8.58125 31.3629 9.65C30.5191 10.7188 29.2441 11.2812 27.8566 11.2812C26.5441 11.2812 25.4004 10.8125 24.5941 9.93125V15.5H23.0566V0.875H24.4254V2.15C25.2316 1.15625 26.5254 0.593749 27.8754 0.593749C29.2629 0.593749 30.5379 1.175 31.3629 2.225ZM30.1254 8.69375C30.6691 7.98125 30.8566 6.96875 30.8566 5.91875C30.8566 4.8875 30.6504 3.875 30.1254 3.14375C29.5629 2.35625 28.6441 2 27.6316 2C26.6754 2 25.7941 2.3375 25.2316 3.06875C24.6504 3.8 24.4254 4.86875 24.4254 5.91875C24.4254 6.9875 24.6504 8.05625 25.2316 8.7875C25.7941 9.5 26.7129 9.875 27.6691 9.875C28.6254 9.875 29.5629 9.48125 30.1254 8.69375ZM38.8102 11.2812C37.3477 11.2812 35.9977 10.7375 35.1164 9.63125C34.2727 8.5625 33.9727 7.25 33.9727 5.91875C33.9727 4.60625 34.2914 3.275 35.1164 2.24375C35.9789 1.175 37.3477 0.593749 38.8102 0.593749C40.2539 0.593749 41.6227 1.1375 42.4852 2.24375C43.3664 3.3125 43.6477 4.625 43.6477 5.91875C43.6477 7.2875 43.3477 8.54375 42.4852 9.63125C41.6039 10.7562 40.2914 11.2812 38.8102 11.2812ZM41.2852 8.69375C41.8477 7.94375 42.0352 6.93125 42.0352 5.91875C42.0352 4.94375 41.8477 3.9125 41.2852 3.1625C40.7227 2.4125 39.7852 2.0375 38.8102 2.0375C37.8352 2.0375 36.8977 2.4125 36.3539 3.1625C35.7727 3.9125 35.5852 4.94375 35.5852 5.91875C35.5852 6.93125 35.7727 7.94375 36.3539 8.69375C36.8977 9.44375 37.8352 9.8375 38.8102 9.8375C39.7852 9.8375 40.7227 9.44375 41.2852 8.69375ZM53.5148 0.875V2.2625H49.9523V11H48.4336V2.2625H44.8711V0.875H53.5148ZM62.3449 0.875H63.8637V11H62.3449V6.36875H56.8137V11H55.2949V0.875H56.8137V4.85H62.3449V0.875ZM66.4922 0.875H68.0484V4.60625H70.8047C71.6109 4.60625 72.4359 4.94375 73.0359 5.525C73.6172 6.125 73.9359 6.96875 73.9359 7.8125C73.9359 8.6375 73.6172 9.48125 73.0359 10.0625C72.4359 10.6625 71.6109 11 70.8047 11H66.5109L66.4922 0.875ZM75.1359 0.875H76.6547V11H75.1359V0.875ZM68.0484 6.0875V9.55625H70.7484C71.1797 9.5375 71.6109 9.3125 71.8922 8.99375C72.2109 8.675 72.3797 8.24375 72.3797 7.8125C72.3797 7.3625 72.2109 6.95 71.9109 6.63125C71.6109 6.29375 71.1984 6.0875 70.7484 6.0875H68.0484ZM80.359 6.35C80.3965 7.2125 80.6027 8.05625 81.0902 8.69375C81.634 9.44375 82.5715 9.8375 83.5465 9.8375C84.5215 9.8375 85.4402 9.44375 86.0027 8.69375C86.134 8.50625 86.2277 8.3375 86.3215 8.15L87.8215 8.80625C87.6715 9.0875 87.484 9.3875 87.259 9.65C86.3777 10.7375 84.9715 11.3188 83.5465 11.2812C82.1027 11.2438 80.734 10.7188 79.8527 9.63125C79.009 8.5625 78.709 7.23125 78.709 5.9375C78.7277 4.60625 79.009 3.3125 79.8527 2.24375C80.7527 1.1375 82.084 0.593749 83.5465 0.593749C85.009 0.593749 86.3402 1.1375 87.2215 2.24375C88.0652 3.3125 88.3652 4.625 88.3652 5.9375C88.3652 6.06875 88.3652 6.21875 88.3465 6.35H80.359ZM83.5465 2.0375C82.5715 2.0375 81.634 2.43125 81.0902 3.18125C80.6965 3.70625 80.4715 4.38125 80.3965 5.075H86.6965C86.6215 4.38125 86.3965 3.70625 86.0027 3.18125C85.4402 2.43125 84.5215 2.0375 83.5465 2.0375ZM9.80625 31.125L8.38125 31.7437C8.2875 31.5375 8.15625 31.35 8.04375 31.1812C7.48125 30.4125 6.5625 30.0375 5.56875 30.0375C4.6125 30.0375 3.675 30.4125 3.13125 31.1812C2.55 31.9312 2.38125 32.9437 2.3625 33.9375C2.38125 34.9312 2.55 35.9437 3.13125 36.6937C3.675 37.4437 4.6125 37.8187 5.56875 37.8187C6.5625 37.8187 7.48125 37.4437 8.04375 36.6937C8.15625 36.525 8.26875 36.3375 8.3625 36.15L9.80625 36.7875C9.6375 37.0687 9.46875 37.35 9.2625 37.6125C8.38125 38.7188 7.03125 39.2812 5.56875 39.2812C4.125 39.2812 2.775 38.7375 1.89375 37.6125C1.05 36.5625 0.76875 35.2312 0.75 33.9375C0.76875 32.625 1.05 31.3125 1.89375 30.2437C2.8125 29.1 4.125 28.5937 5.56875 28.5937C7.03125 28.5937 8.3625 29.1375 9.2625 30.2437C9.46875 30.525 9.65625 30.8062 9.80625 31.125ZM20.0777 28.875V39H18.5402V31.3687L13.1402 39H11.7715V28.875H13.309V36.4312L18.709 28.875H20.0777ZM31.1988 31.125L29.7738 31.7437C29.6801 31.5375 29.5488 31.35 29.4363 31.1812C28.8738 30.4125 27.9551 30.0375 26.9613 30.0375C26.0051 30.0375 25.0676 30.4125 24.5238 31.1812C23.9426 31.9312 23.7738 32.9437 23.7551 33.9375C23.7738 34.9312 23.9426 35.9437 24.5238 36.6937C25.0676 37.4437 26.0051 37.8187 26.9613 37.8187C27.9551 37.8187 28.8738 37.4437 29.4363 36.6937C29.5488 36.525 29.6613 36.3375 29.7551 36.15L31.1988 36.7875C31.0301 37.0687 30.8613 37.35 30.6551 37.6125C29.7738 38.7188 28.4238 39.2812 26.9613 39.2812C25.5176 39.2812 24.1676 38.7375 23.2863 37.6125C22.4426 36.5625 22.1613 35.2312 22.1426 33.9375C22.1613 32.625 22.4426 31.3125 23.2863 30.2437C24.2051 29.1 25.5176 28.5937 26.9613 28.5937C28.4238 28.5937 29.7551 29.1375 30.6551 30.2437C30.8613 30.525 31.0488 30.8062 31.1988 31.125ZM40.9641 28.875V30.2625H37.4016V39H35.8828V30.2625H32.3203V28.875H40.9641ZM43.8316 34.35C43.8691 35.2125 44.0754 36.0562 44.5629 36.6937C45.1066 37.4437 46.0441 37.8375 47.0191 37.8375C47.9941 37.8375 48.9129 37.4437 49.4754 36.6937C49.6066 36.5062 49.7004 36.3375 49.7941 36.15L51.2941 36.8062C51.1441 37.0875 50.9566 37.3875 50.7316 37.65C49.8504 38.7375 48.4441 39.3188 47.0191 39.2812C45.5754 39.2438 44.2066 38.7188 43.3254 37.6312C42.4816 36.5625 42.1816 35.2312 42.1816 33.9375C42.2004 32.6062 42.4816 31.3125 43.3254 30.2437C44.2254 29.1375 45.5566 28.5937 47.0191 28.5937C48.4816 28.5937 49.8129 29.1375 50.6941 30.2437C51.5379 31.3125 51.8379 32.625 51.8379 33.9375C51.8379 34.0687 51.8379 34.2188 51.8191 34.35H43.8316ZM47.0191 30.0375C46.0441 30.0375 45.1066 30.4312 44.5629 31.1812C44.1691 31.7062 43.9441 32.3812 43.8691 33.075H50.1691C50.0941 32.3812 49.8691 31.7062 49.4754 31.1812C48.9129 30.4312 47.9941 30.0375 47.0191 30.0375ZM62.8723 28.875H64.2598L64.2785 39H62.741V32.25L59.591 37.725H58.541L55.4098 32.25V39H53.8535V28.875H55.2598L59.066 35.475L62.8723 28.875ZM66.8965 28.875H68.4527V32.6062H71.209C72.0152 32.6062 72.8402 32.9437 73.4402 33.525C74.0215 34.125 74.3402 34.9687 74.3402 35.8125C74.3402 36.6375 74.0215 37.4812 73.4402 38.0625C72.8402 38.6625 72.0152 39 71.209 39H66.9152L66.8965 28.875ZM75.5402 28.875H77.059V39H75.5402V28.875ZM68.4527 34.0875V37.5562H71.1527C71.584 37.5375 72.0152 37.3125 72.2965 36.9937C72.6152 36.675 72.784 36.2437 72.784 35.8125C72.784 35.3625 72.6152 34.95 72.3152 34.6312C72.0152 34.2937 71.6027 34.0875 71.1527 34.0875H68.4527Z" fill="#1C1C1C"/>
</svg>
