<svg width="12" height="12" viewBox="0 0 12 12" fill="none" xmlns="http://www.w3.org/2000/svg">
<path d="M4.4996 9.50001C4.56541 9.5004 4.63064 9.48778 4.69156 9.4629C4.75248 9.43802 4.80788 9.40135 4.8546 9.35501L7.8546 6.35501C7.94773 6.26133 8 6.13461 8 6.00251C8 5.87042 7.94773 5.7437 7.8546 5.65001L4.8546 2.65001C4.75895 2.5681 4.63591 2.5253 4.51008 2.53016C4.38424 2.53502 4.26487 2.58718 4.17582 2.67623C4.08677 2.76528 4.03461 2.88465 4.02975 3.01049C4.02489 3.13632 4.06769 3.25936 4.1496 3.35501L6.7946 6.00001L4.1496 8.64502C4.07939 8.71465 4.03141 8.80354 4.01171 8.90045C3.99202 8.99735 4.00151 9.09792 4.03897 9.18944C4.07643 9.28096 4.14019 9.35931 4.22218 9.41459C4.30417 9.46987 4.40072 9.4996 4.4996 9.50001Z" fill="white"/>
</svg>
