<svg width="12" height="12" viewBox="0 0 12 12" fill="none" xmlns="http://www.w3.org/2000/svg">
<path d="M4.50009 9.50001C4.56589 9.5004 4.63113 9.48778 4.69204 9.4629C4.75296 9.43802 4.80837 9.40135 4.85509 9.35501L7.85509 6.35501C7.94822 6.26133 8.00049 6.13461 8.00049 6.00251C8.00049 5.87042 7.94822 5.7437 7.85509 5.65001L4.85509 2.65001C4.75944 2.5681 4.6364 2.5253 4.51056 2.53016C4.38473 2.53502 4.26536 2.58718 4.17631 2.67623C4.08726 2.76528 4.0351 2.88465 4.03024 3.01049C4.02538 3.13632 4.06818 3.25936 4.15009 3.35501L6.79509 6.00001L4.15009 8.64502C4.07988 8.71465 4.0319 8.80354 4.0122 8.90045C3.99251 8.99735 4.002 9.09792 4.03946 9.18944C4.07692 9.28096 4.14068 9.35931 4.22267 9.41459C4.30466 9.46987 4.40121 9.4996 4.50009 9.50001Z" fill="#002344"/>
</svg>
