<svg width="170" height="170" viewBox="0 0 170 170" fill="none" xmlns="http://www.w3.org/2000/svg">
<path d="M159.983 88.1076C160.055 87.1353 160.482 86.2642 161.261 85.7323C162.012 85.2235 162.9 85.0881 163.785 85.1531C164.658 85.2172 165.527 85.4941 166.172 86.093C166.841 86.7186 167.161 87.657 167.089 88.6294C167.019 89.5893 166.59 90.4728 165.813 90.9923C165.059 91.526 164.173 91.6489 163.313 91.5858C162.403 91.519 161.582 91.2582 160.901 90.6316C160.196 89.9908 159.911 89.0925 159.983 88.1076ZM161.583 89.8795C162.054 90.2901 162.718 90.4642 163.391 90.5137C164.04 90.5613 164.734 90.4869 165.26 90.1496C165.787 89.8122 166.082 89.2072 166.129 88.5589C166.177 87.9107 165.973 87.269 165.501 86.8709C165.031 86.4478 164.354 86.2728 163.706 86.2252C163.033 86.1758 162.351 86.251 161.824 86.6009C161.298 86.9258 160.991 87.5299 160.943 88.1781C160.896 88.8264 161.112 89.4689 161.583 89.8795Z" fill="#1C1C1C"/>
<path d="M162.623 111.197L160.084 108.139L156.183 109.172L156.558 108.085L159.954 107.186L160.427 105.763L157.628 104.831L157.952 103.859L164.357 105.991L164.033 106.963L161.234 106.031L160.764 107.443L162.986 110.106L162.623 111.197Z" fill="#1C1C1C"/>
<path d="M152.765 117.15C153.21 116.282 153.944 115.648 154.868 115.462C155.759 115.287 156.629 115.509 157.418 115.915C158.196 116.314 158.889 116.909 159.249 117.712C159.62 118.549 159.548 119.538 159.102 120.405C158.663 121.261 157.923 121.907 157.004 122.082C156.102 122.279 155.238 122.046 154.471 121.652C153.659 121.235 153.006 120.674 152.624 119.832C152.225 118.966 152.313 118.028 152.765 117.15ZM153.545 119.406C153.818 119.968 154.362 120.387 154.962 120.696C155.54 120.993 156.209 121.196 156.825 121.09C157.441 120.985 157.949 120.544 158.246 119.965C158.543 119.387 158.606 118.717 158.327 118.166C158.06 117.593 157.505 117.168 156.927 116.871C156.326 116.562 155.669 116.365 155.047 116.481C154.437 116.575 153.918 117.011 153.621 117.59C153.324 118.168 153.272 118.844 153.545 119.406Z" fill="#1C1C1C"/>
<path d="M150.92 133.579L150.371 134.323L144.934 130.323L145.543 129.498L149.162 132.172L147.474 128.314L147.89 127.751L152.066 128.241L148.447 125.567L149.063 124.733L154.492 128.743L153.935 129.497L148.889 128.924L150.92 133.579Z" fill="#1C1C1C"/>
<path d="M141.631 144.145L136.945 139.287L137.674 138.584L141.657 142.714L144.311 140.154L140.329 136.024L141.057 135.321L145.743 140.18L141.631 144.145Z" fill="#1C1C1C"/>
<path d="M134.272 148.412L135.291 148.233C135.3 148.333 135.31 148.479 135.299 148.593C135.269 149.575 134.753 150.364 133.924 150.944C132.91 151.654 131.822 151.866 130.821 151.285C130.445 151.075 130.14 150.77 129.918 150.452L127.495 146.991L128.233 146.475L128.999 147.571C128.925 147.028 129.077 146.418 129.327 145.968C129.62 145.427 130.023 144.978 130.536 144.665C131.103 144.298 131.877 144.184 132.475 144.406C132.92 144.583 133.24 144.801 133.513 145.19C133.921 145.774 133.972 146.501 133.685 147.16C133.311 147.91 132.742 148.384 131.975 149.119L130.936 150.076C131.23 150.388 131.599 150.588 132.009 150.606C132.478 150.644 132.962 150.443 133.382 150.149C133.894 149.79 134.254 149.279 134.268 148.69C134.276 148.592 134.274 148.502 134.272 148.412ZM130.41 149.391C130.777 149.042 131.103 148.723 131.601 148.237C132.399 147.48 133.257 146.635 132.701 145.819C132.353 145.3 131.58 145.154 130.961 145.512C130.183 145.949 129.556 147.014 129.737 147.97C129.837 148.571 130.088 148.93 130.41 149.391Z" fill="#1C1C1C"/>
<path d="M121.516 158.351L120.606 158.797L117.634 152.737L118.543 152.291L119.903 155.063L123.214 153.439L121.854 150.667L122.763 150.221L125.735 156.282L124.826 156.728L123.659 154.348L120.349 155.972L121.516 158.351Z" fill="#1C1C1C"/>
<path d="M108.327 163.583L106.341 157.132L107.321 156.831L108.818 161.693L110.761 155.771L111.633 155.503L113.62 161.954L112.64 162.255L111.158 157.441L109.2 163.315L108.327 163.583Z" fill="#1C1C1C"/>
<path d="M96.2712 166.218L95.2868 159.541L96.3009 159.391L97.0428 164.424L99.8624 158.866L100.765 158.733L101.749 165.411L100.735 165.56L100.001 160.577L97.1739 166.085L96.2712 166.218Z" fill="#1C1C1C"/>
<path d="M70.5458 160.875C71.3769 161.053 71.9127 161.833 71.7318 162.676C71.5508 163.519 70.7422 164.011 69.9112 163.832C69.1168 163.662 68.5932 162.885 68.7741 162.041C68.9551 161.198 69.7514 160.704 70.5458 160.875Z" fill="#1C1C1C"/>
<path d="M45.9666 149.409C46.7873 149.935 47.3491 150.726 47.4454 151.664C47.5342 152.568 47.2302 153.412 46.751 154.159C46.2786 154.896 45.6205 155.528 44.7864 155.81C43.9177 156.099 42.9404 155.933 42.1197 155.406C41.3096 154.886 40.7372 154.089 40.6514 153.157C40.5416 152.241 40.8562 151.403 41.3219 150.677C41.8145 149.909 42.4351 149.312 43.3105 149.012C44.2099 148.698 45.1354 148.876 45.9666 149.409ZM43.6464 149.97C43.0608 150.188 42.5912 150.689 42.2267 151.257C41.8758 151.804 41.6098 152.45 41.6555 153.074C41.7012 153.697 42.0923 154.245 42.6394 154.596C43.1865 154.947 43.8476 155.074 44.4227 154.849C45.0188 154.637 45.4952 154.126 45.8461 153.579C46.2106 153.011 46.4698 152.375 46.4136 151.745C46.3784 151.128 45.9941 150.57 45.4469 150.219C44.8998 149.868 44.232 149.752 43.6464 149.97Z" fill="#1C1C1C"/>
<path d="M24.3447 140.643L28.2435 139.869L29.1943 135.947L29.9713 136.795L29.1433 140.208L30.1687 141.303L32.3218 139.286L33.0225 140.034L28.096 144.648L27.3953 143.9L29.5484 141.884L28.5315 140.798L25.1308 141.483L24.3447 140.643Z" fill="#1C1C1C"/>
<path d="M23.8867 129.25C24.4399 130.053 24.652 131 24.3781 131.902C24.1105 132.77 23.5034 133.431 22.7726 133.934C22.0521 134.431 21.2007 134.759 20.3225 134.696C19.4095 134.627 18.5727 134.096 18.0195 133.293C17.4734 132.5 17.2542 131.543 17.5353 130.651C17.7887 129.763 18.4028 129.112 19.1131 128.623C19.8645 128.105 20.6676 127.795 21.5909 127.857C22.5418 127.915 23.3265 128.437 23.8867 129.25ZM21.5301 128.87C20.9056 128.845 20.2788 129.125 19.723 129.508C19.1877 129.877 18.6925 130.37 18.4936 130.962C18.2946 131.555 18.4433 132.211 18.8121 132.747C19.1809 133.282 19.7414 133.655 20.3588 133.669C20.9904 133.705 21.6274 133.418 22.1627 133.049C22.7185 132.666 23.2034 132.18 23.3953 131.577C23.6014 130.995 23.4629 130.332 23.0941 129.796C22.7254 129.261 22.1546 128.895 21.5301 128.87Z" fill="#1C1C1C"/>
<path d="M10.3049 119.876L9.90993 119.04L16.0084 116.146L16.4461 117.073L12.3768 118.995L16.574 119.335L16.8729 119.968L14.4636 123.414L18.5328 121.493L18.9758 122.431L12.872 125.313L12.4717 124.465L15.3671 120.292L10.3049 119.876Z" fill="#1C1C1C"/>
<path d="M5.43697 106.78L11.9384 104.965L12.2106 105.94L6.68442 107.483L7.67588 111.034L13.2021 109.492L13.4743 110.467L6.9729 112.282L5.43697 106.78Z" fill="#1C1C1C"/>
<path d="M5.19018 98.3782L4.86376 99.3599C4.77108 99.3203 4.63826 99.2602 4.54269 99.1958C3.69267 98.7031 3.24406 97.8743 3.12724 96.8686C2.98447 95.6393 3.31465 94.5817 4.30139 93.9763C4.66467 93.7454 5.07818 93.6218 5.46309 93.5771L9.65988 93.0897L9.76372 93.9837L8.43515 94.138C8.94823 94.3301 9.41278 94.7543 9.68964 95.1877C10.0263 95.7023 10.2306 96.2701 10.2626 96.8704C10.3156 97.5437 10.0487 98.2795 9.56907 98.7001C9.20202 99.007 8.85781 99.1854 8.38598 99.2402C7.67824 99.3224 7.01415 99.022 6.57098 98.4569C6.08857 97.7705 5.9414 97.0451 5.65884 96.0208L5.31107 94.6518C4.89612 94.7629 4.54526 94.9925 4.33442 95.3441C4.07825 95.7388 4.02563 96.2609 4.08476 96.77C4.15686 97.3908 4.43573 97.9498 4.94794 98.2427C5.02964 98.2961 5.10991 98.3371 5.19018 98.3782ZM6.16348 94.5151C6.29567 95.0031 6.42209 95.4414 6.61315 96.1113C6.90004 97.1728 7.23571 98.3293 8.21806 98.2278C8.84032 98.1681 9.33561 97.5569 9.31549 96.842C9.30001 95.9503 8.66114 94.8919 7.73342 94.597C7.15681 94.3997 6.72223 94.4502 6.16348 94.5151Z" fill="#1C1C1C"/>
<path d="M2.50566 81.8276L2.55253 80.8162L9.2953 81.1287L9.24843 82.1401L6.16424 81.9972L5.99354 85.6807L9.07773 85.8236L9.03086 86.835L2.28809 86.5226L2.33496 85.5112L4.98212 85.6338L5.15282 81.9503L2.50566 81.8276Z" fill="#1C1C1C"/>
<path d="M4.17307 67.9849L10.7886 69.3254L10.585 70.33L5.59888 69.3196L9.87006 73.8583L9.68883 74.7526L3.07329 73.412L3.27686 72.4075L8.21402 73.4079L3.99184 68.8792L4.17307 67.9849Z" fill="#1C1C1C"/>
<path d="M7.58765 56.1198L13.925 58.4436L13.5722 59.406L8.79565 57.6545L12.3328 62.7859L12.0187 63.6426L5.68127 61.3188L6.03415 60.3565L10.7637 62.0907L7.27351 56.9765L7.58765 56.1198Z" fill="#1C1C1C"/>
<path d="M24.4165 36.2367C23.8631 36.8819 22.9221 36.9804 22.2675 36.4188C21.6129 35.8572 21.5672 34.9122 22.1206 34.2671C22.6497 33.6504 23.5825 33.5614 24.2371 34.1229C24.8917 34.6845 24.9456 35.6201 24.4165 36.2367Z" fill="#1C1C1C"/>
<path d="M46.0467 20.0832C45.1947 20.5573 44.232 20.6781 43.36 20.3194C42.5221 19.9703 41.9218 19.3029 41.4903 18.5274C41.0648 17.7628 40.819 16.884 40.9653 16.0158C41.1213 15.1136 41.7302 14.3313 42.5822 13.8572C43.4233 13.3892 44.3969 13.2623 45.2579 13.6271C46.1178 13.9641 46.7071 14.6375 47.1265 15.3911C47.5702 16.1885 47.8026 17.0176 47.6527 17.9307C47.504 18.8717 46.9096 19.603 46.0467 20.0832ZM46.6497 17.7736C46.7343 17.1543 46.5153 16.5037 46.1871 15.9139C45.871 15.3459 45.4275 14.8059 44.8567 14.5513C44.2859 14.2968 43.6182 14.3822 43.0502 14.6983C42.4822 15.0143 42.0577 15.5367 41.984 16.1499C41.8885 16.7752 42.1136 17.4367 42.4297 18.0047C42.7579 18.5945 43.1953 19.1236 43.777 19.3721C44.3369 19.6327 45.0107 19.5582 45.5787 19.2421C46.1467 18.9261 46.5652 18.3928 46.6497 17.7736Z" fill="#1C1C1C"/>
<path d="M63.9003 5.17867L62.7273 8.97666L65.7251 11.6783L64.6097 11.9586L62.0012 9.60697L60.5505 9.98831L61.3004 12.8414L60.3091 13.102L58.5931 6.57374L59.5844 6.31316L60.3344 9.16624L61.773 8.78808L62.7881 5.47104L63.9003 5.17867Z" fill="#1C1C1C"/>
<path d="M74.511 10.1101C73.5413 10.2114 72.6085 9.94438 71.9476 9.27192C71.3141 8.62172 71.0242 7.77224 70.932 6.88954C70.8411 6.01928 70.9602 5.1145 71.4358 4.37358C71.9337 3.60519 72.801 3.12497 73.7707 3.02366C74.728 2.92365 75.6732 3.18937 76.3217 3.86314C76.9801 4.51074 77.2575 5.36152 77.3471 6.21935C77.4419 7.12691 77.33 7.98066 76.8335 8.76148C76.3271 9.56846 75.4932 10.0075 74.511 10.1101ZM75.9729 8.22299C76.2939 7.68673 76.3481 7.00239 76.2779 6.33105C76.2104 5.68457 76.0146 5.01378 75.5897 4.55545C75.1648 4.09712 74.5172 3.91341 73.8707 3.98095C73.2242 4.04849 72.6286 4.36208 72.32 4.89704C71.9866 5.43459 71.9337 6.13136 72.0012 6.77784C72.0713 7.44919 72.2658 8.10755 72.7032 8.56458C73.1157 9.02421 73.7645 9.22034 74.411 9.1528C75.0575 9.08527 75.6518 8.75924 75.9729 8.22299Z" fill="#1C1C1C"/>
<path d="M89.2292 2.64464L90.1527 2.69814L89.7747 9.43756L88.7514 9.37827L89.0117 4.88581L86.7041 8.40822L86.0053 8.36773L84.1324 4.60309L83.8721 9.09556L82.8363 9.03554L83.2268 2.29685L84.1627 2.35108L86.4415 6.89049L89.2292 2.64464Z" fill="#1C1C1C"/>
<path d="M103.159 4.60086L101.642 11.1783L100.655 10.9508L101.945 5.35996L98.3513 4.53141L97.0621 10.1222L96.0755 9.8947L97.5922 3.3173L103.159 4.60086Z" fill="#1C1C1C"/>
<path d="M110.902 8.45129L110.197 7.6936C110.276 7.63129 110.393 7.54363 110.495 7.49073C111.336 6.98168 112.278 6.98609 113.216 7.36653C114.363 7.83151 115.132 8.62897 115.19 9.7852C115.218 10.2148 115.128 10.6368 114.982 10.9959L113.395 14.9113L112.56 14.5732L113.063 13.3337C112.648 13.6915 112.053 13.8953 111.54 13.93C110.927 13.9782 110.331 13.8849 109.789 13.6247C109.173 13.3479 108.655 12.7605 108.517 12.1378C108.424 11.6685 108.433 11.2809 108.611 10.8407C108.879 10.1804 109.461 9.7421 110.17 9.62472C111.003 9.53114 111.71 9.75032 112.744 9.99426L114.112 10.3465C114.214 9.92919 114.181 9.51122 113.974 9.15742C113.751 8.7432 113.318 8.44637 112.843 8.25381C112.264 8.01897 111.64 7.99515 111.137 8.30384C111.051 8.34986 110.976 8.40058 110.902 8.45129ZM113.823 11.1599C113.331 11.0416 112.886 10.942 112.207 10.7879C111.138 10.5299 109.962 10.269 109.58 11.1795C109.333 11.754 109.632 12.4819 110.268 12.8076C111.058 13.2221 112.293 13.1699 112.997 12.4977C113.447 12.0866 113.612 11.6812 113.823 11.1599Z" fill="#1C1C1C"/>
<path d="M126.068 13.6546L126.936 14.1759L123.46 19.9622L122.592 19.4408L124.182 16.7941L121.021 14.8953L119.431 17.5419L118.563 17.0206L122.039 11.2343L122.907 11.7557L121.542 14.0273L124.703 15.9262L126.068 13.6546Z" fill="#1C1C1C"/>
<path d="M137.816 21.9632L133.478 27.1339L132.692 26.4751L135.963 22.5779L129.935 24.161L129.236 23.5744L133.575 18.4037L134.36 19.0626L131.122 22.9215L137.117 21.3767L137.816 21.9632Z" fill="#1C1C1C"/>
<path d="M146.603 30.603L141.545 35.0721L140.866 34.304L144.679 30.9356L138.483 31.6061L137.878 30.9222L142.937 26.4531L143.616 27.2212L139.84 30.5566L145.999 29.9191L146.603 30.603Z" fill="#1C1C1C"/>
<path d="M156.12 54.8694C155.815 54.0758 156.176 53.2011 156.981 52.892C157.786 52.583 158.64 52.9919 158.944 53.7855C159.235 54.544 158.87 55.4071 158.065 55.7162C157.26 56.0252 156.411 55.6279 156.12 54.8694Z" fill="#1C1C1C"/>
</svg>
