<svg width="32" height="32" viewBox="0 0 32 32" fill="none" xmlns="http://www.w3.org/2000/svg">
<g clip-path="url(#clip0_43_865)">
<path d="M23.7119 7.97713C23.6568 6.71733 23.5814 5.4585 23.4856 4.20113C23.4456 3.66884 23.216 3.16856 22.8385 2.7911C22.4611 2.41365 21.9608 2.18405 21.4285 2.14399C15.7402 1.70331 10.0264 1.70331 4.3382 2.14399C3.80591 2.18405 3.30562 2.41365 2.92817 2.7911C2.55072 3.16856 2.32112 3.66884 2.28106 4.20113C1.84121 9.86728 1.84121 15.559 2.28106 21.2251C2.32112 21.7574 2.55072 22.2577 2.92817 22.6352C3.30562 23.0126 3.80591 23.2422 4.3382 23.2823C5.66392 23.3806 6.96677 23.4583 8.26049 23.5131" stroke="#0B83F2" stroke-width="3" stroke-linecap="round" stroke-linejoin="round"/>
<path d="M8.52315 27.2297C8.56321 27.762 8.79281 28.2622 9.17026 28.6397C9.54772 29.0172 10.048 29.2468 10.5803 29.2868C16.2685 29.728 21.9824 29.728 27.6706 29.2868C28.2029 29.2468 28.7032 29.0172 29.0806 28.6397C29.4581 28.2622 29.6877 27.762 29.7277 27.2297C30.1674 21.5643 30.1674 15.8733 29.7277 10.208C29.6877 9.67566 29.4581 9.17538 29.0806 8.79792C28.7032 8.42047 28.2029 8.19087 27.6706 8.15081C21.9823 7.71015 16.2685 7.71015 10.5803 8.15081C10.048 8.19087 9.54772 8.42047 9.17026 8.79792C8.79281 9.17538 8.56321 9.67566 8.52315 10.208C8.08343 15.8733 8.08343 21.5643 8.52315 27.2297Z" stroke="#0B83F2" stroke-width="3" stroke-linecap="round" stroke-linejoin="round"/>
</g>
<defs>
<clipPath id="clip0_43_865">
<rect width="32" height="32" fill="white"/>
</clipPath>
</defs>
</svg>
