<svg width="16" height="16" viewBox="0 0 16 16" fill="none" xmlns="http://www.w3.org/2000/svg">
<g clip-path="url(#clip0_16_272)">
<path d="M12.8 0.399902H3.2C1.43556 0.399902 0 1.83543 0 3.5999V12.3999C0 14.1644 1.43556 15.5999 3.2 15.5999H12.8C14.5644 15.5999 16 14.1643 16 12.3999V3.5999C16 1.83543 14.5644 0.399902 12.8 0.399902ZM3.2 1.9999H12.8C13.6824 1.9999 14.4 2.7175 14.4 3.5999V4.3999H1.6V3.5999C1.6 2.7175 2.31756 1.9999 3.2 1.9999ZM12.8 13.9999H3.2C2.31756 13.9999 1.6 13.2823 1.6 12.3999V5.9999H14.4V12.3999C14.4 13.2823 13.6824 13.9999 12.8 13.9999ZM12 8.3999C12 8.84171 11.6418 9.1999 11.2 9.1999C10.7582 9.1999 10.4 8.84171 10.4 8.3999C10.4 7.95806 10.7582 7.5999 11.2 7.5999C11.6418 7.5999 12 7.95806 12 8.3999ZM8.8 8.3999C8.8 8.84171 8.44184 9.1999 8 9.1999C7.55816 9.1999 7.2 8.84171 7.2 8.3999C7.2 7.95806 7.55816 7.5999 8 7.5999C8.44184 7.5999 8.8 7.95806 8.8 8.3999ZM5.6 8.3999C5.6 8.84171 5.24184 9.1999 4.8 9.1999C4.35816 9.1999 4 8.84171 4 8.3999C4 7.95806 4.35816 7.5999 4.8 7.5999C5.24184 7.5999 5.6 7.95806 5.6 8.3999ZM12 11.5999C12 12.0417 11.6418 12.3999 11.2 12.3999C10.7582 12.3999 10.4 12.0417 10.4 11.5999C10.4 11.1581 10.7582 10.7999 11.2 10.7999C11.6418 10.7999 12 11.1581 12 11.5999ZM8.8 11.5999C8.8 12.0417 8.44184 12.3999 8 12.3999C7.55816 12.3999 7.2 12.0417 7.2 11.5999C7.2 11.1581 7.55816 10.7999 8 10.7999C8.44184 10.7999 8.8 11.1581 8.8 11.5999ZM5.6 11.5999C5.6 12.0417 5.24184 12.3999 4.8 12.3999C4.35816 12.3999 4 12.0417 4 11.5999C4 11.1581 4.35816 10.7999 4.8 10.7999C5.24184 10.7999 5.6 11.1581 5.6 11.5999Z" fill="#0B83F2"/>
</g>
<defs>
<clipPath id="clip0_16_272">
<rect width="16" height="16" fill="white"/>
</clipPath>
</defs>
</svg>
