<svg width="130" height="136" viewBox="0 0 130 136" fill="none" xmlns="http://www.w3.org/2000/svg">
<path fill-rule="evenodd" clip-rule="evenodd" d="M40.5155 19.6132C40.664 19.5686 41.5843 20.9268 41.3171 21.2237C40.8792 21.7284 39.803 22.1811 39.187 22.4186C38.3632 22.7377 38.8011 22.9678 38.6824 23.6135C38.4597 24.8381 38.3113 24.8381 39.2687 25.6693C39.6175 25.9736 39.5433 26.367 39.7808 26.7084C40.0405 27.0721 40.5675 27.176 40.8569 27.5767C41.7995 28.022 41.9182 28.6974 41.7401 29.6697C41.5768 30.5529 42.4749 30.679 42.512 31.4954C42.5491 32.245 41.7179 32.0892 41.2206 31.9704C40.3597 31.7701 39.9886 33.1431 39.5507 33.6626C39.3058 33.9521 38.9124 33.7442 38.6155 33.8927C38.3706 34.0114 38.1257 34.5606 37.9328 34.7759C37.6359 35.3177 36.8195 36.2083 36.7156 36.7426C36.5449 36.8169 36.4335 37.7891 36.3742 38.0118L35.6468 37.6926C35.4019 37.5813 34.0586 37.6407 33.8433 37.7743C33.5316 37.9598 33.2348 38.4571 32.8562 38.4571C32.3367 38.4571 31.8469 38.1602 31.2754 38.2196C31.0231 38.2418 30.7707 39.125 30.7707 39.3774C30.8153 39.3848 30.6594 39.9043 30.9117 40.075C31.2086 40.2754 31.4535 39.4293 31.7727 40.3348C32.0102 41.0028 32.3516 40.1121 32.5148 40.602C32.6559 40.6242 33.1902 41.6113 33.309 41.7746C32.6262 42.257 33.3238 42.3832 33.6281 42.5539C33.8582 42.6875 33.9027 43.4668 34.1625 43.3851C34.2738 43.348 34.3926 42.9769 34.5261 43.0586C34.6968 43.1625 34.6004 43.4074 34.9269 43.4223C35.3351 43.4371 35.7878 43.1848 36.2109 43.2516C36.3296 43.2738 37.5246 44.439 37.7324 44.0308C38.0812 43.3332 37.7175 43.0215 38.5562 42.5242C38.8827 42.3313 39.2984 43.3183 39.3948 43.5336C39.7066 44.1867 38.4226 45.4929 37.9031 46.005C37.6136 46.2945 37.6952 46.4132 37.2722 46.4132C36.6785 46.4132 35.7211 45.7007 35.157 45.5078L33.9027 45.0773C33.3461 44.8843 33.7098 45.3668 33.4426 45.5078C32.7672 45.8714 33.2496 46.2722 33.0344 46.9699C32.8934 47.4226 32.641 47.1257 32.3887 47.2742C32.1363 47.4226 32.2922 47.7417 32.1883 47.9941C32.0844 48.2835 32.1512 48.1574 31.9063 48.3206C31.7281 48.4394 31.9359 48.5656 31.9582 48.6843C31.2902 49.0183 31.8395 49.048 31.8395 49.5601C31.8395 49.8421 31.5129 50.0128 31.5129 50.3468C31.5129 50.5546 31.6984 50.6956 31.4832 50.9034C31.1567 51.2374 31.3645 51.6011 31.0528 51.9499C30.6594 52.3878 30.8301 52.514 30.9266 53.1003C32.6559 53.0038 34.6226 52.8405 34.9566 54.1096C35.2535 55.2303 34.7191 57.3158 35.7359 57.9541C36.4039 58.3772 35.8843 59.1564 36.582 59.5498C36.6562 59.765 36.6339 60.2252 36.6339 60.4627C36.6339 60.8263 36.2851 60.9006 36.0179 60.9674C35.914 60.9971 35.914 61.0713 35.8398 61.1381C35.6468 61.3162 34.682 61.331 34.5781 61.5314C34.259 62.14 35.0234 62.1623 35.3574 62.3033C35.7062 62.4517 35.6914 62.4443 35.8472 62.7783C35.9363 62.9787 35.9289 63.3201 36.248 63.2533C36.8863 63.1345 36.723 61.9841 37.6136 61.9841C37.673 62.3701 37.7249 62.8228 37.8882 63.1791C37.9624 63.3498 38.2667 63.6763 38.2742 63.8173C38.289 63.988 38.0589 64.1365 38.0144 64.322C37.9327 64.6783 38.1702 64.7079 37.673 64.7747C37.3316 64.8193 37.0199 64.7005 36.6859 64.7228C36.5523 65.0864 36.5968 65.6579 36.53 66.0513C36.5003 66.1997 36.4632 66.311 36.2851 66.2814C35.8027 66.2071 35.9511 66.1923 35.8769 66.6747C35.8324 67.0013 35.7804 67.3872 35.632 67.6767C35.491 67.9438 35.2386 67.9661 35.1793 68.3075C35.0976 68.7973 35.1347 69.443 34.541 69.5618C34.1402 69.6434 34.6523 70.1407 34.6746 70.3337C34.7265 70.7715 33.6355 70.6602 33.3461 70.5934C32.6336 70.4301 33.4723 71.6696 33.6652 71.818C34.1402 72.0704 33.8508 72.575 34.0066 72.9981C34.1328 73.3395 33.6578 73.1836 33.7246 73.6364C33.7988 74.1559 33.4351 74.2821 33.4129 74.809L33.3609 75.9965C32.8785 76.1598 32.782 75.9223 32.8117 76.4863C32.834 76.8722 32.3887 77.2211 32.166 77.5328C31.691 77.5328 31.2457 77.2804 30.7633 77.1988C30.0657 77.0801 29.4051 77.0652 28.6704 77.0652C27.9059 77.7703 27.7204 77.414 27.0747 76.7758C26.8966 76.5976 26.3177 76.4269 26.095 76.5383C25.8723 76.6422 25.8278 77.4437 25.3602 77.325C25.286 76.939 24.7442 76.2043 24.3435 76.2117L21.7904 76.2191C21.7904 76.939 21.3154 76.7015 20.8701 76.5828C20.588 76.5086 20.5212 76.7535 20.306 76.8277C20.0017 76.9316 19.8384 76.8055 19.4822 76.9687C19.215 77.184 18.9552 76.9242 18.6658 76.8351C18.176 76.6867 18.3318 76.5605 18.265 76.1523C17.2482 75.9 15.8975 76.2934 14.8436 76.1375C14.094 76.0262 13.901 76.0039 13.1811 76.2785C12.617 76.4937 12.862 77.1543 12.9213 77.5551C12.9881 77.9633 12.4538 77.8222 12.2237 77.8668C11.8006 77.9484 11.9417 78.7945 12.1346 79.0543C12.2459 79.2101 11.912 79.4625 11.9491 79.6777C12.001 79.9746 11.9639 80.1453 11.8377 80.3976C11.6003 80.4273 11.7487 81.5777 11.7116 81.8448C11.4815 81.9116 11.2514 82.2234 10.9546 82.1491C10.9546 82.0155 10.9249 81.6667 10.8655 81.5628H9.34403L9.35145 82.5351H8.66865L8.40888 83.4183H4.91322V84.2421H2.66442V85.4741H1.88513V86.6171H1.24686V87.619H1.46951V88.6432H1.65506V91.2928H1.14296V91.7604C1.03905 91.8643 0.994519 91.8346 0.860927 91.8791C0.727335 91.9236 0.578899 91.9533 0.586321 92.1389C0.586321 92.2205 0.660539 92.2799 0.660539 92.3615C0.653117 92.4803 0.408198 92.6287 0.319137 92.6881C0.20781 92.7623 0 92.7697 0 92.9478V93.9795H2.25622C2.26364 94.0982 2.34528 94.306 2.30818 94.4099C2.27849 94.5064 2.10779 94.4767 2.11521 94.6029C2.12263 94.7959 2.38982 95.0185 2.21911 95.2486C2.06326 95.4564 1.78865 95.3896 1.57342 95.449C1.41756 95.5009 1.45467 95.731 1.44725 95.8794C1.43983 96.0873 0.675383 96.0798 0.482416 96.1392C0.133592 96.2431 0.215232 96.5771 0.296871 96.8294C0.474994 97.3712 0.0816398 97.6904 0.0816398 98.2173C0.0816398 98.581 0.037109 99.5903 0.118749 99.902C0.393355 99.7759 0.593743 99.8724 0.898036 99.7388C1.34334 99.5384 1.55115 99.479 2.05583 99.4048C2.57536 99.1525 3.39176 99.2712 3.97808 99.1228C4.28979 99.0411 4.78705 98.6923 5.03939 98.9372C5.56634 99.4419 5.92259 99.3454 6.50891 99.6646C6.63508 99.7314 7.6296 100.236 7.68155 99.9095C6.93195 99.9095 6.85031 98.8407 7.58506 98.9595C7.96358 99.0189 8.23818 99.145 8.63896 99.1302C9.15106 99.1079 9.79676 98.7368 10.3311 98.6255L10.4276 98.6181C10.4796 98.3212 12.7952 97.9278 13.1588 97.8462C13.8565 97.6904 14.5912 97.5345 15.3186 97.5345C15.5264 97.5345 15.1404 96.7478 15.1404 96.4287C15.1404 95.9388 15.1479 95.59 15.519 95.2337C16.1646 94.6177 16.8697 95.6048 17.5303 95.1521C18.2724 94.64 18.6806 94.5658 19.5935 94.5658C20.3951 94.5658 21.3005 94.8478 21.397 95.783C21.4267 96.0798 21.3451 96.3025 21.3154 96.5919C21.3005 96.7849 21.397 96.9333 21.3896 97.1486C21.3822 97.3118 21.1076 97.49 21.1001 97.7275C21.0927 97.9353 21.6048 98.2173 21.6939 98.5068C21.7978 98.8482 21.5454 99.3009 21.6865 99.7091C21.7458 99.8946 22.0947 100.169 22.1021 100.266C22.1243 100.563 21.872 100.444 21.7607 100.696C21.3005 100.845 22.1021 100.993 22.1911 101.112C22.5103 101.542 22.2134 101.787 22.963 101.787C23.2376 101.787 22.9927 102.492 22.963 102.745C22.9259 102.752 22.6884 102.96 22.5845 103.004C22.3247 103.101 21.8201 103.131 21.5603 103.012C20.9888 102.759 20.6845 102.425 20.0314 102.648C19.6603 102.774 19.267 102.73 18.933 102.73C18.9107 102.663 18.8068 102.463 18.7623 102.396C18.5619 102.396 17.3224 103.257 17.0924 103.405C16.5951 103.954 16.0459 104.437 15.3928 104.778C15.1553 104.904 14.8733 104.971 14.5987 105.001C14.3315 105.023 14.5912 104.526 14.2795 104.57C14.235 104.83 13.9158 104.993 13.7748 105.172C13.4334 105.602 13.6932 106.485 12.8545 106.485C12.4909 106.485 12.0159 106.893 11.6967 107.079C11.1475 107.398 10.4944 107.636 9.86355 107.613V108.875H13.8119V108.459H15.1553V108.912H14.2869V111.948L13.8119 111.955V117.091C13.9455 117.046 14.1459 117.002 14.2795 117.002L14.2869 116.994C14.2869 116.527 14.3389 115.287 14.7322 115.028C14.9846 114.857 15.1924 115.176 15.4744 115.169C15.7342 115.161 16.0533 115.191 16.2686 115.028C17.0033 114.464 16.751 115.28 17.2408 115.332C17.8568 115.391 17.5154 115.777 17.9607 116.022C18.2056 116.163 18.5842 116.185 18.8513 116.119C19.1631 116.044 19.2595 116.119 19.3709 115.77C19.6232 115.005 20.2986 115.941 20.8107 115.555V113.439H21.4267V112.942H22.1318V109.959H23.8981V109.736H25.9763V109.038H26.8223V109.647H28.752V110.025H34.5558V110.627H39.2687V111.443H39.6472C39.6843 111.517 39.7288 111.591 39.7585 111.666C39.9812 111.718 40.0405 111.666 40.2632 111.666C40.3894 111.666 40.6343 111.777 40.7604 111.807C40.7604 112.17 40.3374 112.267 40.2706 112.601C40.2261 112.846 40.3151 113.172 40.3151 113.432C40.3151 113.773 40.3522 114.248 40.278 114.567C40.1815 114.998 39.4913 115.02 39.1722 115.235V117.937H42.5788V119.147H42.9721V120.646H43.796V122.924C43.7292 122.962 43.551 122.999 43.5139 123.051C43.4768 123.103 43.5065 123.206 43.4397 123.221C43.2764 123.258 43.0835 123.362 43.0835 123.555C43.0835 123.808 43.5362 123.808 43.6178 124.09C43.7069 124.424 43.4471 124.617 43.7885 124.899H44.6643V126.042H49.6221L49.726 125.841H53.7708V127.481H57.7118V125.433H58.8177V128.001H58.5505V130.984H60.636V132.268H61.4672V132.743H61.8012V134.54H62.1575V135.133H62.6028V136.009H67.5011V134.629L69.3863 134.569L69.4011 134.161H70.2843V134.859C70.4179 134.888 70.4699 134.97 70.5886 135.007C70.8335 135.089 71.123 134.985 71.3679 135.037C71.5609 135.074 71.7464 135.037 71.9394 135.096C72.1917 135.17 72.4515 135.304 72.7261 135.289C73.0304 135.282 73.3643 135.126 73.6538 135.252L74.2995 135.193L74.2179 134.05L73.9284 132.691C73.7874 132.068 73.5054 131.734 73.253 131.192C73.0601 130.784 72.9562 130.406 72.7409 130.005C72.5405 129.641 73.0378 129.478 72.8671 129.136C72.8077 129.018 72.6444 128.906 72.8522 128.817C73.0007 128.751 73.164 128.847 73.3421 128.78C73.5573 128.699 74.0694 127.867 74.2698 127.986C74.4776 128.112 74.7003 128.238 74.7819 128.483C74.9971 129.129 75.6057 129.196 76.1995 129.433L77.335 130.035L77.9659 129.047H79.7174V128.224H78.6264V126.539H79.8065V125.403H84.2892V122.924L82.8197 122.887L81.3428 117.558C81.981 117.514 82.6193 117.328 83.2576 117.113C84.0888 116.831 85.6919 117.737 86.5158 117.944C86.8052 118.019 87.1021 118.071 87.3989 118.13C87.7552 118.315 88.5196 118.479 88.861 118.701C89.1876 118.917 89.2767 119.073 89.4102 119.466C89.4696 119.637 89.67 119.852 89.7962 119.971L91.0505 120.483C92.0153 120.787 92.1192 121.648 92.7426 122.301C93.2399 122.828 94.42 123.132 95.1547 123.184C95.5778 123.221 96.9285 123.399 97.2328 123.088L97.3293 121.997L100.602 120.772L105.835 126.064L107.742 128.075L109.182 129.359C110.822 129.359 112.217 129.856 113.895 129.441C114.347 129.329 114.949 129.322 115.357 129.166L115.802 127.652L117.079 124.899C117.383 124.246 118.177 123.63 117.68 122.821C117.405 122.375 117.413 121.989 118.044 122.153C118.474 122.264 119.045 122.672 119.29 123.028C119.483 123.318 119.535 123.785 119.758 124.038C119.869 124.156 120.552 124.617 120.552 124.706C120.552 125.025 119.81 125.663 119.906 125.812C119.958 125.893 120.196 126.183 120.285 126.175C120.448 126.16 121.094 125.247 121.287 125.092C121.769 124.706 123.261 124.379 122.482 123.31C122.266 122.991 121.918 122.843 121.71 122.561C121.517 122.294 121.65 121.997 121.532 121.73C121.48 121.618 121.317 121.403 121.317 121.321C121.317 121.039 121.383 120.831 121.317 120.557C121.25 120.267 121.539 120.023 121.547 119.696C121.554 119.273 121.517 118.457 121.643 118.093L120.938 118.004L120.3 117.276L119.186 116.742L119.327 116.156L120.604 115.391L121.361 113.499L120.975 113.091L121.205 112.504L124.055 110.782L124.196 109.736L125.065 108.6L126.601 108.971L128.827 106.47L129.184 102.93L130 99.1599L129.718 88.4799L128.159 88.4948L128.085 86.194L127.41 86.2311L126.964 86.8546L126.029 86.2905L126.014 90.469L122.549 90.8772L121.576 93.1631L121.895 95.3748L118.86 95.0853L118.489 91.9236L117.049 88.7174L116.633 88.8213C116.262 88.8436 116.255 89.3186 115.876 89.2963C115.646 89.2889 115.327 88.9104 115.156 88.7471C114.548 88.1385 112.856 88.3686 112.054 88.5245C111.297 88.6729 110.117 88.7545 109.486 89.2073C109.174 89.4373 108.885 89.66 108.477 89.6971C107.237 89.6971 106.28 89.5264 105.389 88.7545L105.219 87.3741C105.182 87.0995 105.553 86.246 105.545 86.2311L103.363 86.1792C102.339 87.337 102.005 87.5967 100.506 87.5967C100.38 87.4706 100.394 87.2108 100.268 87.1217C100.09 86.0678 99.3109 84.8432 99.014 83.7671C98.6207 83.3218 98.4797 83.2624 98.5019 82.6316C98.5168 82.0898 97.9973 81.882 97.7672 81.4515L97.2774 80.546C96.691 79.4624 96.0305 77.6886 95.9934 76.4566C95.741 75.8851 95.2289 75.7441 94.7168 75.4102L93.2028 74.4082C92.8317 74.1633 92.8465 73.7551 92.5868 73.4508C92.1489 72.9387 91.8817 72.8422 91.711 72.1223C91.6813 71.9961 91.6516 71.5508 91.6145 71.484C91.1544 71.484 90.2563 71.6176 89.8481 71.4692C88.8907 71.4692 88.5196 71.6325 88.2896 70.6899C88.1634 70.1704 87.5548 71.0536 87.0427 71.0387L85.4619 70.9793C84.8607 70.9571 84.2744 71.6102 83.7623 71.5583C83.599 71.1946 83.4431 71.0239 83.0127 71.2688C82.842 71.3653 82.1963 71.202 81.8697 71.2836C81.276 71.4395 80.749 70.5415 80.7268 70.0368C80.6822 68.8048 82.0256 67.7138 83.0349 67.3353C83.0349 67.313 83.0349 67.313 83.0424 67.2907C82.7306 66.7786 82.7752 65.8212 82.5303 65.2349C82.2408 64.515 82.4115 64.5892 81.6842 64.4853C81.6842 64.0771 81.417 63.5205 81.9217 63.4388L83.7549 63.1568C84.0666 63.1048 84.5193 63.1865 84.267 62.7931C83.8513 62.1474 82.0775 59.06 82.7306 58.4959C83.0795 58.199 83.5396 58.1322 83.8959 57.7463C84.8162 57.1971 85.3283 56.3287 86.204 55.8315C87.0575 55.3491 87.7107 55.6608 88.6087 55.6608C89.0837 55.6608 89.6997 55.7944 90.1302 55.7424C90.5235 55.6905 90.6423 55.3268 90.954 55.1635C91.3399 54.9631 91.5997 55.2303 92.0079 54.8963C92.3715 54.5995 92.2825 54.5178 92.802 54.5178C92.995 54.5178 93.1063 54.2358 93.277 54.1171C93.6852 54.1171 93.8336 54.5475 94.1008 53.8276C94.3012 53.271 94.3457 53.0186 94.9766 53.0928C95.8153 53.1893 94.984 51.0964 94.8504 50.7253C94.7243 50.3616 94.368 49.0554 94.6723 48.8402C95.3996 48.3206 96.2457 47.5117 96.3274 46.5839C96.2383 45.4855 95.9117 45.0031 95.266 44.157C94.8578 43.6301 95.0137 41.8488 94.6575 41.6559C94.2641 41.4481 93.7149 40.9953 93.3586 40.8469C93.0469 40.7207 92.6981 40.7727 92.4235 40.5723C92.0895 40.3274 91.9188 39.9118 91.5552 39.6594C90.6052 38.7094 88.9353 40.7207 88.3786 38.4274C88.1931 37.6704 88.1782 38.0118 88.7052 37.6481C88.9427 37.4848 88.8165 36.6091 88.8165 36.2899C88.7942 36.2825 88.8017 36.2825 88.8017 36.2602C87.8962 36.2602 88.2376 36.1415 88.0446 35.3622C87.963 35.0356 86.4935 35.4513 86.1595 35.5106C84.2076 35.8743 82.7455 35.5255 80.8529 35.5255C80.8529 34.9169 83.6658 33.1653 81.5728 32.965C81.4615 32.7497 81.6248 32.3267 81.6693 32.0966C81.6916 31.9704 81.8252 31.1837 81.8697 31.1763C82.0182 31.154 82.1517 31.4212 82.3447 31.4064C82.4486 31.399 82.6638 30.872 82.6638 30.7978C81.6842 30.308 82.6416 30.1224 82.4931 29.5509C82.4412 29.358 82.0924 29.64 82.0256 29.4693C81.9514 29.2912 82.033 28.9424 82.033 28.7345C82.033 28.549 81.4021 28.6677 81.2092 28.601C81.2092 27.599 81.6693 26.5303 81.5803 25.5209L82.0256 23.9549C82.1814 23.4057 82.3373 23.3092 82.6193 22.8936C82.7752 22.6635 82.8049 22.1737 82.8568 21.8991C83.1314 20.4444 83.74 19.3682 84.2298 18.0249C84.3041 16.7929 83.5396 16.0952 82.6713 15.3382C81.7881 14.5664 80.9939 13.6015 80.3557 12.5996C79.7916 11.709 79.1682 12.3101 78.567 11.6347C78.3369 11.375 78.1217 10.6551 77.9955 10.3062C77.3202 9.38595 76.7487 9.89805 75.8135 9.93516C74.7225 9.97227 74.5667 8.77736 73.5202 8.5547C72.8894 8.42111 72.355 8.51017 71.8577 8.05744C71.2195 7.48597 71.1823 7.09261 71.5238 6.33559C72.0804 5.08873 71.5312 5.30396 70.6183 4.83639C69.9949 4.51725 70.032 4.33171 69.5867 3.84187L67.4937 0.153242L66.8629 0.168085C66.8109 0.14582 66.7144 0.138398 66.6699 0.116133C66.6402 0.0938676 66.5808 0.0493371 66.5437 0.0344935C66.4769 0.0122282 66.373 -0.0100374 66.2988 0.00480617C66.1058 0.0493369 65.9945 0.375896 65.9129 0.539175C65.8164 0.709876 65.7422 0.902842 65.5863 1.02901C64.7254 1.55596 66.3433 2.01611 66.6328 2.30556C67.1449 2.81766 67.4269 3.58953 67.1449 4.35397C66.9594 4.85865 66.1355 4.37624 66.0019 5.16295C65.9203 5.63794 65.7422 5.40044 65.5789 5.60825C65.3785 5.86802 65.6828 6.34301 65.2078 6.40239L63.5453 6.62504C62.1946 6.80316 61.6825 8.05744 60.6954 8.9629C60.4876 9.42305 60.4876 9.97969 60.354 10.4695L60.0497 11.5531C59.8641 12.2285 59.8122 12.9855 59.5153 13.6089C59.3594 13.9429 59.0848 14.2101 58.877 14.5218L57.7341 16.2437C57.4966 16.5554 57.5634 16.8819 57.1255 16.8894L55.7896 16.9042C54.4982 16.9191 54.8915 16.8597 54.3497 17.8839C54.1642 18.2327 53.1919 18.0546 52.858 18.0397C52.0045 18.0101 51.5443 17.5128 51.1213 18.344C51.0099 18.5593 51.2549 19.0194 51.2177 19.0417C50.958 19.1901 50.4607 18.7968 50.2678 19.1604C50.0377 19.6057 49.7779 20.0585 49.4439 20.4741C49.0061 21.0307 48.2119 20.7561 47.5811 20.9342C46.0151 20.9342 44.9983 20.1995 43.8034 19.3237C43.5882 19.1679 42.987 19.3608 42.6975 19.3311C42.3116 19.294 41.5249 18.7745 41.2354 18.8784L40.5452 19.628L40.5155 19.6132Z" fill="white"/>
</svg>
